<svg version="1.1" xmlns="http://www.w3.org/2000/svg" viewBox="0 0 720 540" width="720" height="540"><!-- svg-source:excalidraw --><metadata></metadata><defs><style class="style-fonts">
      </style></defs><rect x="0" y="0" width="720" height="540" fill="#ffffff"></rect><g stroke-linecap="round" transform="translate(10 10) rotate(0 350 260)"><path d="M0 0 L700 0 L700 520 L0 520" stroke="none" stroke-width="0" fill="#f1f5f9"></path><path d="M0 0 C174.69 0, 349.39 0, 700 0 M0 0 C177.52 0, 355.03 0, 700 0 M700 0 C700 197.34, 700 394.68, 700 520 M700 0 C700 173.69, 700 347.38, 700 520 M700 520 C523.47 520, 346.94 520, 0 520 M700 520 C444.79 520, 189.58 520, 0 520 M0 520 C0 359.24, 0 198.48, 0 0 M0 520 C0 367.49, 0 214.99, 0 0" stroke="#475569" stroke-width="1" fill="none"></path></g><g transform="translate(30 26) rotate(0 140 15)"><text x="0" y="21.48046875" font-family="Helvetica, Segoe UI Emoji" font-size="24px" fill="#1e293b" text-anchor="start" style="white-space: pre;" direction="ltr" dominant-baseline="alphabetic">Version History</text></g><g transform="translate(290 34) rotate(0 50 10)"><text x="0" y="13.7802734375" font-family="Helvetica, Segoe UI Emoji" font-size="14px" fill="#64748b" text-anchor="start" style="white-space: pre;" direction="ltr" dominant-baseline="alphabetic">(12 papers)</text></g><g stroke-linecap="round" transform="translate(630 22) rotate(0 30 14)"><path d="M0 0 L60 0 L60 28 L0 28" stroke="none" stroke-width="0" fill="#e0f2fe"></path><path d="M0 0 C14.97 0, 29.95 0, 60 0 M0 0 C16.17 0, 32.35 0, 60 0 M60 0 C60 7.98, 60 15.95, 60 28 M60 0 C60 7.28, 60 14.55, 60 28 M60 28 C39.8 28, 19.59 28, 0 28 M60 28 C42.76 28, 25.52 28, 0 28 M0 28 C0 18.73, 0 9.45, 0 0 M0 28 C0 18.26, 0 8.52, 0 0" stroke="#475569" stroke-width="1" fill="none"></path></g><g transform="translate(642 26) rotate(0 18 10)"><text x="18" y="13.7802734375" font-family="Helvetica, Segoe UI Emoji" font-size="14px" fill="#334155" text-anchor="middle" style="white-space: pre;" direction="ltr" dominant-baseline="alphabetic">Back</text></g><g stroke-linecap="round" transform="translate(22 62) rotate(0 100 210)"><path d="M0 0 L200 0 L200 420 L0 420" stroke="none" stroke-width="0" fill="#ffffff"></path><path d="M0 0 C49.92 0, 99.84 0, 200 0 M0 0 C60.31 0, 120.61 0, 200 0 M200 0 C200 124.2, 200 248.39, 200 420 M200 0 C200 130.85, 200 261.7, 200 420 M200 420 C138.84 420, 77.68 420, 0 420 M200 420 C133.45 420, 66.89 420, 0 420 M0 420 C0 262.36, 0 104.72, 0 0 M0 420 C0 312.07, 0 204.14, 0 0" stroke="#475569" stroke-width="1" fill="none"></path></g><g transform="translate(34 70) rotate(0 30 9)"><text x="0" y="12.240234375" font-family="Helvetica, Segoe UI Emoji" font-size="12px" fill="#64748b" text-anchor="start" style="white-space: pre;" direction="ltr" dominant-baseline="alphabetic">Filter</text></g><g stroke-linecap="round" transform="translate(34 92) rotate(0 88 12)"><path d="M0 0 L176 0 L176 24 L0 24" stroke="none" stroke-width="0" fill="#f8fafc"></path><path d="M0 0 C43.93 0, 87.86 0, 176 0 M0 0 C43.21 0, 86.42 0, 176 0 M176 0 C176 8.78, 176 17.57, 176 24 M176 0 C176 6.29, 176 12.58, 176 24 M176 24 C135.73 24, 95.45 24, 0 24 M176 24 C138.23 24, 100.47 24, 0 24 M0 24 C0 17.84, 0 11.68, 0 0 M0 24 C0 15.36, 0 6.72, 0 0" stroke="#cbd5e1" stroke-width="1" fill="none"></path></g><g transform="translate(40 95) rotate(0 60 8)"><text x="0" y="11.240234375" font-family="Helvetica, Segoe UI Emoji" font-size="12px" fill="#94a3b8" text-anchor="start" style="white-space: pre;" direction="ltr" dominant-baseline="alphabetic">Search papers...</text></g><g stroke-linecap="round" transform="translate(24 126) rotate(0 98 30)"><path d="M0 0 L196 0 L196 60 L0 60" stroke="none" stroke-width="0" fill="#eff6ff"></path><path d="M0 0 C48.93 0, 97.86 0, 196 0 M0 0 C43.41 0, 86.82 0, 196 0 M196 0 C196 14.82, 196 29.64, 196 60 M196 0 C196 15.86, 196 31.72, 196 60 M196 60 C133.1 60, 70.19 60, 0 60 M196 60 C129 60, 61.99 60, 0 60 M0 60 C0 37.07, 0 14.13, 0 0 M0 60 C0 37.67, 0 15.34, 0 0" stroke="#dbeafe" stroke-width="2" fill="none"></path></g><g transform="translate(30 130) rotate(0 90 8)"><text x="0" y="11.240234375" font-family="Helvetica, Segoe UI Emoji" font-size="12px" fill="#1e293b" text-anchor="start" style="white-space: pre;" direction="ltr" dominant-baseline="alphabetic">Glueck_2005_Osteolysis</text></g><g transform="translate(30 150) rotate(0 90 7)"><text x="0" y="9.97021484375" font-family="Helvetica, Segoe UI Emoji" font-size="11px" fill="#64748b" text-anchor="start" style="white-space: pre;" direction="ltr" dominant-baseline="alphabetic">v1 → v2 → v3  ● 2.1 MB</text></g><g stroke-linecap="round" transform="translate(200 132) rotate(0 8 8)"><path d="M16 8 C16 8.46, 15.96 8.93, 15.88 9.39 C15.8 9.85, 15.68 10.3, 15.52 10.74 C15.36 11.17, 15.16 11.6, 14.93 12 C14.7 12.4, 14.43 12.79, 14.13 13.14 C13.83 13.5, 13.5 13.83, 13.14 14.13 C12.79 14.43, 12.4 14.7, 12 14.93 C11.6 15.16, 11.17 15.36, 10.74 15.52 C10.3 15.68, 9.85 15.8, 9.39 15.88 C8.93 15.96, 8.46 16, 8 16 C7.54 16, 7.07 15.96, 6.61 15.88 C6.15 15.8, 5.7 15.68, 5.26 15.52 C4.83 15.36, 4.4 15.16, 4 14.93 C3.6 14.7, 3.21 14.43, 2.86 14.13 C2.5 13.83, 2.17 13.5, 1.87 13.14 C1.57 12.79, 1.3 12.4, 1.07 12 C0.84 11.6, 0.64 11.17, 0.48 10.74 C0.32 10.3, 0.2 9.85, 0.12 9.39 C0.04 8.93, 0 8.46, 0 8 C0 7.54, 0.04 7.07, 0.12 6.61 C0.2 6.15, 0.32 5.7, 0.48 5.26 C0.64 4.83, 0.84 4.4, 1.07 4 C1.3 3.6, 1.57 3.21, 1.87 2.86 C2.17 2.5, 2.5 2.17, 2.86 1.87 C3.21 1.57, 3.6 1.3, 4 1.07 C4.4 0.84, 4.83 0.64, 5.26 0.48 C5.7 0.32, 6.15 0.2, 6.61 0.12 C7.07 0.04, 7.54 0, 8 0 C8.46 0, 8.93 0.04, 9.39 0.12 C9.85 0.2, 10.3 0.32, 10.74 0.48 C11.17 0.64, 11.6 0.84, 12 1.07 C12.4 1.3, 12.79 1.57, 13.14 1.87 C13.5 2.17, 13.83 2.5, 14.13 2.86 C14.43 3.21, 14.7 3.6, 14.93 4 C15.16 4.4, 15.36 4.83, 15.52 5.26 C15.68 5.7, 15.8 6.15, 15.88 6.61 C15.96 7.07, 15.98 7.77, 16 8 C16.02 8.23, 16.02 7.77, 16 8" stroke="none" stroke-width="0" fill="#fecaca"></path><path d="M16 8 C16 8.46, 15.96 8.93, 15.88 9.39 C15.8 9.85, 15.68 10.3, 15.52 10.74 C15.36 11.17, 15.16 11.6, 14.93 12 C14.7 12.4, 14.43 12.79, 14.13 13.14 C13.83 13.5, 13.5 13.83, 13.14 14.13 C12.79 14.43, 12.4 14.7, 12 14.93 C11.6 15.16, 11.17 15.36, 10.74 15.52 C10.3 15.68, 9.85 15.8, 9.39 15.88 C8.93 15.96, 8.46 16, 8 16 C7.54 16, 7.07 15.96, 6.61 15.88 C6.15 15.8, 5.7 15.68, 5.26 15.52 C4.83 15.36, 4.4 15.16, 4 14.93 C3.6 14.7, 3.21 14.43, 2.86 14.13 C2.5 13.83, 2.17 13.5, 1.87 13.14 C1.57 12.79, 1.3 12.4, 1.07 12 C0.84 11.6, 0.64 11.17, 0.48 10.74 C0.32 10.3, 0.2 9.85, 0.12 9.39 C0.04 8.93, 0 8.46, 0 8 C0 7.54, 0.04 7.07, 0.12 6.61 C0.2 6.15, 0.32 5.7, 0.48 5.26 C0.64 4.83, 0.84 4.4, 1.07 4 C1.3 3.6, 1.57 3.21, 1.87 2.86 C2.17 2.5, 2.5 2.17, 2.86 1.87 C3.21 1.57, 3.6 1.3, 4 1.07 C4.4 0.84, 4.83 0.64, 5.26 0.48 C5.7 0.32, 6.15 0.2, 6.61 0.12 C7.07 0.04, 7.54 0, 8 0 C8.46 0, 8.93 0.04, 9.39 0.12 C9.85 0.2, 10.3 0.32, 10.74 0.48 C11.17 0.64, 11.6 0.84, 12 1.07 C12.4 1.3, 12.79 1.57, 13.14 1.87 C13.5 2.17, 13.83 2.5, 14.13 2.86 C14.43 3.21, 14.7 3.6, 14.93 4 C15.16 4.4, 15.36 4.83, 15.52 5.26 C15.68 5.7, 15.8 6.15, 15.88 6.61 C15.96 7.07, 15.98 7.77, 16 8 C16.02 8.23, 16.02 7.77, 16 8" stroke="#dc2626" stroke-width="2" fill="none"></path></g><g stroke-linecap="round" transform="translate(24 190) rotate(0 98 30)"><path d="M0 0 L196 0 L196 60 L0 60" stroke="none" stroke-width="0" fill="#ffffff"></path><path d="M0 0 C48.93 0, 97.87 0, 196 0 M0 0 C60.65 0, 121.3 0, 196 0 M196 0 C196 23.25, 196 46.51, 196 60 M196 0 C196 21.93, 196 43.86, 196 60 M196 60 C124.07 60, 52.14 60, 0 60 M196 60 C136.12 60, 76.24 60, 0 60 M0 60 C0 39.3, 0 18.6, 0 0 M0 60 C0 37.3, 0 14.61, 0 0" stroke="#e2e8f0" stroke-width="1" fill="none"></path></g><g transform="translate(30 194) rotate(0 90 8)"><text x="0" y="11.240234375" font-family="Helvetica, Segoe UI Emoji" font-size="12px" fill="#334155" text-anchor="start" style="white-space: pre;" direction="ltr" dominant-baseline="alphabetic">Gao_2020_Bioelectronic</text></g><g transform="translate(30 214) rotate(0 90 7)"><text x="0" y="9.97021484375" font-family="Helvetica, Segoe UI Emoji" font-size="11px" fill="#64748b" text-anchor="start" style="white-space: pre;" direction="ltr" dominant-baseline="alphabetic">v1  ● 0.8 MB</text></g><g stroke-linecap="round" transform="translate(24 254) rotate(0 98 30)"><path d="M0 0 L196 0 L196 60 L0 60" stroke="none" stroke-width="0" fill="#ffffff"></path><path d="M0 0 C48.94 0, 97.87 0, 196 0 M0 0 C63.78 0, 127.57 0, 196 0 M196 0 C196 17.58, 196 35.16, 196 60 M196 0 C196 17.48, 196 34.96, 196 60 M196 60 C146.7 60, 97.4 60, 0 60 M196 60 C151.27 60, 106.54 60, 0 60 M0 60 C0 37.98, 0 15.96, 0 0 M0 60 C0 46.03, 0 32.06, 0 0" stroke="#e2e8f0" stroke-width="1" fill="none"></path></g><g transform="translate(30 258) rotate(0 90 8)"><text x="0" y="11.240234375" font-family="Helvetica, Segoe UI Emoji" font-size="12px" fill="#334155" text-anchor="start" style="white-space: pre;" direction="ltr" dominant-baseline="alphabetic">Lyu_AI_VTE_Prevention</text></g><g transform="translate(30 278) rotate(0 90 7)"><text x="0" y="9.97021484375" font-family="Helvetica, Segoe UI Emoji" font-size="11px" fill="#64748b" text-anchor="start" style="white-space: pre;" direction="ltr" dominant-baseline="alphabetic">v1 → v2  ● 1.5 MB</text></g><g stroke-linecap="round" transform="translate(230 62) rotate(0 234 210)"><path d="M0 0 L468 0 L468 420 L0 420" stroke="none" stroke-width="0" fill="#ffffff"></path><path d="M0 0 C116.86 0, 233.71 0, 468 0 M0 0 C159.78 0, 319.56 0, 468 0 M468 0 C468 167.32, 468 334.63, 468 420 M468 0 C468 91.22, 468 182.43, 468 420 M468 420 C310.72 420, 153.45 420, 0 420 M468 420 C303.75 420, 139.51 420, 0 420 M0 420 C0 256.58, 0 93.16, 0 0 M0 420 C0 299.29, 0 178.58, 0 0" stroke="#475569" stroke-width="1" fill="none"></path></g><g transform="translate(242 70) rotate(0 220 10)"><text x="0" y="14.3203125" font-family="Helvetica, Segoe UI Emoji" font-size="16px" fill="#1e293b" text-anchor="start" style="white-space: pre;" direction="ltr" dominant-baseline="alphabetic">Glueck_2005_Osteolysis_CaseReport</text></g><g stroke-linecap="round"><g transform="translate(262 118) rotate(0 0 120)"><path d="M0 0 C0 59.93, 0 119.86, 0 240 M0 0 C0 68.5, 0 136.99, 0 240" stroke="#cbd5e1" stroke-width="2" fill="none"></path></g></g><mask></mask><g stroke-linecap="round" transform="translate(256 118) rotate(0 6 6)"><path d="M12 6 C12 6.35, 11.97 6.7, 11.91 7.04 C11.85 7.38, 11.76 7.73, 11.64 8.05 C11.52 8.38, 11.37 8.7, 11.2 9 C11.02 9.3, 10.82 9.59, 10.6 9.86 C10.37 10.12, 10.12 10.37, 9.86 10.6 C9.59 10.82, 9.3 11.02, 9 11.2 C8.7 11.37, 8.38 11.52, 8.05 11.64 C7.73 11.76, 7.38 11.85, 7.04 11.91 C6.7 11.97, 6.35 12, 6 12 C5.65 12, 5.3 11.97, 4.96 11.91 C4.62 11.85, 4.27 11.76, 3.95 11.64 C3.62 11.52, 3.3 11.37, 3 11.2 C2.7 11.02, 2.41 10.82, 2.14 10.6 C1.88 10.37, 1.63 10.12, 1.4 9.86 C1.18 9.59, 0.98 9.3, 0.8 9 C0.63 8.7, 0.48 8.38, 0.36 8.05 C0.24 7.73, 0.15 7.38, 0.09 7.04 C0.03 6.7, 0 6.35, 0 6 C0 5.65, 0.03 5.3, 0.09 4.96 C0.15 4.62, 0.24 4.27, 0.36 3.95 C0.48 3.62, 0.63 3.3, 0.8 3 C0.98 2.7, 1.18 2.41, 1.4 2.14 C1.63 1.88, 1.88 1.63, 2.14 1.4 C2.41 1.18, 2.7 0.98, 3 0.8 C3.3 0.63, 3.62 0.48, 3.95 0.36 C4.27 0.24, 4.62 0.15, 4.96 0.09 C5.3 0.03, 5.65 0, 6 0 C6.35 0, 6.7 0.03, 7.04 0.09 C7.38 0.15, 7.73 0.24, 8.05 0.36 C8.38 0.48, 8.7 0.63, 9 0.8 C9.3 0.98, 9.59 1.18, 9.86 1.4 C10.12 1.63, 10.37 1.88, 10.6 2.14 C10.82 2.41, 11.02 2.7, 11.2 3 C11.37 3.3, 11.52 3.62, 11.64 3.95 C11.76 4.27, 11.85 4.62, 11.91 4.96 C11.97 5.3, 11.98 5.83, 12 6 C12.02 6.17, 12.02 5.83, 12 6" stroke="none" stroke-width="0" fill="#bbf7d0"></path><path d="M12 6 C12 6.35, 11.97 6.7, 11.91 7.04 C11.85 7.38, 11.76 7.73, 11.64 8.05 C11.52 8.38, 11.37 8.7, 11.2 9 C11.02 9.3, 10.82 9.59, 10.6 9.86 C10.37 10.12, 10.12 10.37, 9.86 10.6 C9.59 10.82, 9.3 11.02, 9 11.2 C8.7 11.37, 8.38 11.52, 8.05 11.64 C7.73 11.76, 7.38 11.85, 7.04 11.91 C6.7 11.97, 6.35 12, 6 12 C5.65 12, 5.3 11.97, 4.96 11.91 C4.62 11.85, 4.27 11.76, 3.95 11.64 C3.62 11.52, 3.3 11.37, 3 11.2 C2.7 11.02, 2.41 10.82, 2.14 10.6 C1.88 10.37, 1.63 10.12, 1.4 9.86 C1.18 9.59, 0.98 9.3, 0.8 9 C0.63 8.7, 0.48 8.38, 0.36 8.05 C0.24 7.73, 0.15 7.38, 0.09 7.04 C0.03 6.7, 0 6.35, 0 6 C0 5.65, 0.03 5.3, 0.09 4.96 C0.15 4.62, 0.24 4.27, 0.36 3.95 C0.48 3.62, 0.63 3.3, 0.8 3 C0.98 2.7, 1.18 2.41, 1.4 2.14 C1.63 1.88, 1.88 1.63, 2.14 1.4 C2.41 1.18, 2.7 0.98, 3 0.8 C3.3 0.63, 3.62 0.48, 3.95 0.36 C4.27 0.24, 4.62 0.15, 4.96 0.09 C5.3 0.03, 5.65 0, 6 0 C6.35 0, 6.7 0.03, 7.04 0.09 C7.38 0.15, 7.73 0.24, 8.05 0.36 C8.38 0.48, 8.7 0.63, 9 0.8 C9.3 0.98, 9.59 1.18, 9.86 1.4 C10.12 1.63, 10.37 1.88, 10.6 2.14 C10.82 2.41, 11.02 2.7, 11.2 3 C11.37 3.3, 11.52 3.62, 11.64 3.95 C11.76 4.27, 11.85 4.62, 11.91 4.96 C11.97 5.3, 11.98 5.83, 12 6 C12.02 6.17, 12.02 5.83, 12 6" stroke="#166534" stroke-width="2" fill="none"></path></g><g transform="translate(282 116) rotate(0 200 8)"><text x="0" y="11.51025390625" font-family="Helvetica, Segoe UI Emoji" font-size="13px" fill="#166534" text-anchor="start" style="white-space: pre;" direction="ltr" dominant-baseline="alphabetic">v3 (current) — 2026-07-10 10:00 — 43KB — renderer 2.1.0</text></g><g stroke-linecap="round" transform="translate(256 180) rotate(0 6 6)"><path d="M12 6 C12 6.35, 11.97 6.7, 11.91 7.04 C11.85 7.38, 11.76 7.73, 11.64 8.05 C11.52 8.38, 11.37 8.7, 11.2 9 C11.02 9.3, 10.82 9.59, 10.6 9.86 C10.37 10.12, 10.12 10.37, 9.86 10.6 C9.59 10.82, 9.3 11.02, 9 11.2 C8.7 11.37, 8.38 11.52, 8.05 11.64 C7.73 11.76, 7.38 11.85, 7.04 11.91 C6.7 11.97, 6.35 12, 6 12 C5.65 12, 5.3 11.97, 4.96 11.91 C4.62 11.85, 4.27 11.76, 3.95 11.64 C3.62 11.52, 3.3 11.37, 3 11.2 C2.7 11.02, 2.41 10.82, 2.14 10.6 C1.88 10.37, 1.63 10.12, 1.4 9.86 C1.18 9.59, 0.98 9.3, 0.8 9 C0.63 8.7, 0.48 8.38, 0.36 8.05 C0.24 7.73, 0.15 7.38, 0.09 7.04 C0.03 6.7, 0 6.35, 0 6 C0 5.65, 0.03 5.3, 0.09 4.96 C0.15 4.62, 0.24 4.27, 0.36 3.95 C0.48 3.62, 0.63 3.3, 0.8 3 C0.98 2.7, 1.18 2.41, 1.4 2.14 C1.63 1.88, 1.88 1.63, 2.14 1.4 C2.41 1.18, 2.7 0.98, 3 0.8 C3.3 0.63, 3.62 0.48, 3.95 0.36 C4.27 0.24, 4.62 0.15, 4.96 0.09 C5.3 0.03, 5.65 0, 6 0 C6.35 0, 6.7 0.03, 7.04 0.09 C7.38 0.15, 7.73 0.24, 8.05 0.36 C8.38 0.48, 8.7 0.63, 9 0.8 C9.3 0.98, 9.59 1.18, 9.86 1.4 C10.12 1.63, 10.37 1.88, 10.6 2.14 C10.82 2.41, 11.02 2.7, 11.2 3 C11.37 3.3, 11.52 3.62, 11.64 3.95 C11.76 4.27, 11.85 4.62, 11.91 4.96 C11.97 5.3, 11.98 5.83, 12 6 C12.02 6.17, 12.02 5.83, 12 6" stroke="none" stroke-width="0" fill="#e2e8f0"></path><path d="M12 6 C12 6.35, 11.97 6.7, 11.91 7.04 C11.85 7.38, 11.76 7.73, 11.64 8.05 C11.52 8.38, 11.37 8.7, 11.2 9 C11.02 9.3, 10.82 9.59, 10.6 9.86 C10.37 10.12, 10.12 10.37, 9.86 10.6 C9.59 10.82, 9.3 11.02, 9 11.2 C8.7 11.37, 8.38 11.52, 8.05 11.64 C7.73 11.76, 7.38 11.85, 7.04 11.91 C6.7 11.97, 6.35 12, 6 12 C5.65 12, 5.3 11.97, 4.96 11.91 C4.62 11.85, 4.27 11.76, 3.95 11.64 C3.62 11.52, 3.3 11.37, 3 11.2 C2.7 11.02, 2.41 10.82, 2.14 10.6 C1.88 10.37, 1.63 10.12, 1.4 9.86 C1.18 9.59, 0.98 9.3, 0.8 9 C0.63 8.7, 0.48 8.38, 0.36 8.05 C0.24 7.73, 0.15 7.38, 0.09 7.04 C0.03 6.7, 0 6.35, 0 6 C0 5.65, 0.03 5.3, 0.09 4.96 C0.15 4.62, 0.24 4.27, 0.36 3.95 C0.48 3.62, 0.63 3.3, 0.8 3 C0.98 2.7, 1.18 2.41, 1.4 2.14 C1.63 1.88, 1.88 1.63, 2.14 1.4 C2.41 1.18, 2.7 0.98, 3 0.8 C3.3 0.63, 3.62 0.48, 3.95 0.36 C4.27 0.24, 4.62 0.15, 4.96 0.09 C5.3 0.03, 5.65 0, 6 0 C6.35 0, 6.7 0.03, 7.04 0.09 C7.38 0.15, 7.73 0.24, 8.05 0.36 C8.38 0.48, 8.7 0.63, 9 0.8 C9.3 0.98, 9.59 1.18, 9.86 1.4 C10.12 1.63, 10.37 1.88, 10.6 2.14 C10.82 2.41, 11.02 2.7, 11.2 3 C11.37 3.3, 11.52 3.62, 11.64 3.95 C11.76 4.27, 11.85 4.62, 11.91 4.96 C11.97 5.3, 11.98 5.83, 12 6 C12.02 6.17, 12.02 5.83, 12 6" stroke="#475569" stroke-width="2" fill="none"></path></g><g transform="translate(282 178) rotate(0 200 8)"><text x="0" y="11.51025390625" font-family="Helvetica, Segoe UI Emoji" font-size="13px" fill="#334155" text-anchor="start" style="white-space: pre;" direction="ltr" dominant-baseline="alphabetic">v2 (rebuild) — 2026-07-09 14:30 — 42KB — renderer 2.0.0</text></g><g stroke-linecap="round" transform="translate(290 200) rotate(0 32 11)"><path d="M0 0 L64 0 L64 22 L0 22" stroke="none" stroke-width="0" fill="#dbeafe"></path><path d="M0 0 C15.98 0, 31.97 0, 64 0 M0 0 C22.36 0, 44.71 0, 64 0 M64 0 C64 6.39, 64 12.77, 64 22 M64 0 C64 5.96, 64 11.93, 64 22 M64 22 C38.58 22, 13.15 22, 0 22 M64 22 C43.28 22, 22.57 22, 0 22 M0 22 C0 14.11, 0 6.22, 0 0 M0 22 C0 17.41, 0 12.82, 0 0" stroke="#1e40af" stroke-width="1" fill="none"></path></g><g transform="translate(300 202) rotate(0 22 8)"><text x="22" y="10.97021484375" font-family="Helvetica, Segoe UI Emoji" font-size="11px" fill="#334155" text-anchor="middle" style="white-space: pre;" direction="ltr" dominant-baseline="alphabetic">Restore</text></g><g stroke-linecap="round" transform="translate(360 200) rotate(0 32 11)"><path d="M0 0 L64 0 L64 22 L0 22" stroke="none" stroke-width="0" fill="#f1f5f9"></path><path d="M0 0 C15.98 0, 31.97 0, 64 0 M0 0 C18.77 0, 37.54 0, 64 0 M64 0 C64 7.93, 64 15.86, 64 22 M64 0 C64 4.88, 64 9.75, 64 22 M64 22 C43.5 22, 23.01 22, 0 22 M64 22 C50.85 22, 37.7 22, 0 22 M0 22 C0 16.72, 0 11.44, 0 0 M0 22 C0 15.14, 0 8.28, 0 0" stroke="#475569" stroke-width="1" fill="none"></path></g><g transform="translate(368 202) rotate(0 24 8)"><text x="24" y="10.97021484375" font-family="Helvetica, Segoe UI Emoji" font-size="11px" fill="#334155" text-anchor="middle" style="white-space: pre;" direction="ltr" dominant-baseline="alphabetic">Compare</text></g><g stroke-linecap="round" transform="translate(256 242) rotate(0 6 6)"><path d="M12 6 C12 6.35, 11.97 6.7, 11.91 7.04 C11.85 7.38, 11.76 7.73, 11.64 8.05 C11.52 8.38, 11.37 8.7, 11.2 9 C11.02 9.3, 10.82 9.59, 10.6 9.86 C10.37 10.12, 10.12 10.37, 9.86 10.6 C9.59 10.82, 9.3 11.02, 9 11.2 C8.7 11.37, 8.38 11.52, 8.05 11.64 C7.73 11.76, 7.38 11.85, 7.04 11.91 C6.7 11.97, 6.35 12, 6 12 C5.65 12, 5.3 11.97, 4.96 11.91 C4.62 11.85, 4.27 11.76, 3.95 11.64 C3.62 11.52, 3.3 11.37, 3 11.2 C2.7 11.02, 2.41 10.82, 2.14 10.6 C1.88 10.37, 1.63 10.12, 1.4 9.86 C1.18 9.59, 0.98 9.3, 0.8 9 C0.63 8.7, 0.48 8.38, 0.36 8.05 C0.24 7.73, 0.15 7.38, 0.09 7.04 C0.03 6.7, 0 6.35, 0 6 C0 5.65, 0.03 5.3, 0.09 4.96 C0.15 4.62, 0.24 4.27, 0.36 3.95 C0.48 3.62, 0.63 3.3, 0.8 3 C0.98 2.7, 1.18 2.41, 1.4 2.14 C1.63 1.88, 1.88 1.63, 2.14 1.4 C2.41 1.18, 2.7 0.98, 3 0.8 C3.3 0.63, 3.62 0.48, 3.95 0.36 C4.27 0.24, 4.62 0.15, 4.96 0.09 C5.3 0.03, 5.65 0, 6 0 C6.35 0, 6.7 0.03, 7.04 0.09 C7.38 0.15, 7.73 0.24, 8.05 0.36 C8.38 0.48, 8.7 0.63, 9 0.8 C9.3 0.98, 9.59 1.18, 9.86 1.4 C10.12 1.63, 10.37 1.88, 10.6 2.14 C10.82 2.41, 11.02 2.7, 11.2 3 C11.37 3.3, 11.52 3.62, 11.64 3.95 C11.76 4.27, 11.85 4.62, 11.91 4.96 C11.97 5.3, 11.98 5.83, 12 6 C12.02 6.17, 12.02 5.83, 12 6" stroke="none" stroke-width="0" fill="#e2e8f0"></path><path d="M12 6 C12 6.35, 11.97 6.7, 11.91 7.04 C11.85 7.38, 11.76 7.73, 11.64 8.05 C11.52 8.38, 11.37 8.7, 11.2 9 C11.02 9.3, 10.82 9.59, 10.6 9.86 C10.37 10.12, 10.12 10.37, 9.86 10.6 C9.59 10.82, 9.3 11.02, 9 11.2 C8.7 11.37, 8.38 11.52, 8.05 11.64 C7.73 11.76, 7.38 11.85, 7.04 11.91 C6.7 11.97, 6.35 12, 6 12 C5.65 12, 5.3 11.97, 4.96 11.91 C4.62 11.85, 4.27 11.76, 3.95 11.64 C3.62 11.52, 3.3 11.37, 3 11.2 C2.7 11.02, 2.41 10.82, 2.14 10.6 C1.88 10.37, 1.63 10.12, 1.4 9.86 C1.18 9.59, 0.98 9.3, 0.8 9 C0.63 8.7, 0.48 8.38, 0.36 8.05 C0.24 7.73, 0.15 7.38, 0.09 7.04 C0.03 6.7, 0 6.35, 0 6 C0 5.65, 0.03 5.3, 0.09 4.96 C0.15 4.62, 0.24 4.27, 0.36 3.95 C0.48 3.62, 0.63 3.3, 0.8 3 C0.98 2.7, 1.18 2.41, 1.4 2.14 C1.63 1.88, 1.88 1.63, 2.14 1.4 C2.41 1.18, 2.7 0.98, 3 0.8 C3.3 0.63, 3.62 0.48, 3.95 0.36 C4.27 0.24, 4.62 0.15, 4.96 0.09 C5.3 0.03, 5.65 0, 6 0 C6.35 0, 6.7 0.03, 7.04 0.09 C7.38 0.15, 7.73 0.24, 8.05 0.36 C8.38 0.48, 8.7 0.63, 9 0.8 C9.3 0.98, 9.59 1.18, 9.86 1.4 C10.12 1.63, 10.37 1.88, 10.6 2.14 C10.82 2.41, 11.02 2.7, 11.2 3 C11.37 3.3, 11.52 3.62, 11.64 3.95 C11.76 4.27, 11.85 4.62, 11.91 4.96 C11.97 5.3, 11.98 5.83, 12 6 C12.02 6.17, 12.02 5.83, 12 6" stroke="#475569" stroke-width="2" fill="none"></path></g><g transform="translate(282 240) rotate(0 200 8)"><text x="0" y="11.51025390625" font-family="Helvetica, Segoe UI Emoji" font-size="13px" fill="#64748b" text-anchor="start" style="white-space: pre;" direction="ltr" dominant-baseline="alphabetic">v1 (original OCR) — 2026-06-01 09:00 — 38KB</text></g><g stroke-linecap="round" transform="translate(290 262) rotate(0 32 11)"><path d="M0 0 L64 0 L64 22 L0 22" stroke="none" stroke-width="0" fill="#dbeafe"></path><path d="M0 0 C15.99 0, 31.97 0, 64 0 M0 0 C24.4 0, 48.81 0, 64 0 M64 0 C64 6.62, 64 13.25, 64 22 M64 0 C64 7.1, 64 14.2, 64 22 M64 22 C40.56 22, 17.11 22, 0 22 M64 22 C40.38 22, 16.75 22, 0 22 M0 22 C0 17.54, 0 13.07, 0 0 M0 22 C0 15.01, 0 8.02, 0 0" stroke="#1e40af" stroke-width="1" fill="none"></path></g><g transform="translate(300 264) rotate(0 22 8)"><text x="22" y="10.97021484375" font-family="Helvetica, Segoe UI Emoji" font-size="11px" fill="#334155" text-anchor="middle" style="white-space: pre;" direction="ltr" dominant-baseline="alphabetic">Restore</text></g><g stroke-linecap="round" transform="translate(360 262) rotate(0 32 11)"><path d="M0 0 L64 0 L64 22 L0 22" stroke="none" stroke-width="0" fill="#f1f5f9"></path><path d="M0 0 C15.99 0, 31.97 0, 64 0 M0 0 C20.82 0, 41.64 0, 64 0 M64 0 C64 8.17, 64 16.34, 64 22 M64 0 C64 6.01, 64 12.03, 64 22 M64 22 C45.48 22, 26.96 22, 0 22 M64 22 C47.94 22, 31.88 22, 0 22 M0 22 C0 15.75, 0 9.49, 0 0 M0 22 C0 17.14, 0 12.28, 0 0" stroke="#475569" stroke-width="1" fill="none"></path></g><g transform="translate(368 264) rotate(0 24 8)"><text x="24" y="10.97021484375" font-family="Helvetica, Segoe UI Emoji" font-size="11px" fill="#334155" text-anchor="middle" style="white-space: pre;" direction="ltr" dominant-baseline="alphabetic">Compare</text></g><g stroke-linecap="round" transform="translate(242 300) rotate(0 222 60)"><path d="M0 0 L444 0 L444 120 L0 120" stroke="none" stroke-width="0" fill="#f8fafc"></path><path d="M0 0 C110.92 0, 221.85 0, 444 0 M0 0 C133.75 0, 267.49 0, 444 0 M444 0 C444 30.28, 444 60.57, 444 120 M444 0 C444 33.08, 444 66.15, 444 120 M444 120 C274.64 120, 105.27 120, 0 120 M444 120 C276.07 120, 108.13 120, 0 120 M0 120 C0 94.83, 0 69.67, 0 0 M0 120 C0 92.03, 0 64.07, 0 0" stroke="#e2e8f0" stroke-width="1" fill="none"></path></g><g transform="translate(250 306) rotate(0 100 8)"><text x="0" y="11.240234375" font-family="Helvetica, Segoe UI Emoji" font-size="12px" fill="#334155" text-anchor="start" style="white-space: pre;" direction="ltr" dominant-baseline="alphabetic">v2 vs current — 2 paragraphs changed</text></g><g stroke-linecap="round" transform="translate(250 328) rotate(0 214 9)"><path d="M0 0 L428 0 L428 18 L0 18" stroke="none" stroke-width="0" fill="#fefce8"></path><path d="M0 0 C106.93 0, 213.86 0, 428 0 M0 0 C104.95 0, 209.9 0, 428 0 M428 0 C428 5.81, 428 11.62, 428 18 M428 0 C428 4.07, 428 8.14, 428 18 M428 18 C297.68 18, 167.37 18, 0 18 M428 18 C316.7 18, 205.4 18, 0 18 M0 18 C0 12.76, 0 7.52, 0 0 M0 18 C0 11.95, 0 5.9, 0 0" stroke="#fef9c3" stroke-width="1" fill="none"></path></g><g transform="translate(256 329) rotate(0 200 7)"><text x="0" y="9.97021484375" font-family="Helvetica, Segoe UI Emoji" font-size="11px" fill="#854d0e" text-anchor="start" style="white-space: pre;" direction="ltr" dominant-baseline="alphabetic">Introduction: background paragraph restructured</text></g><g stroke-linecap="round" transform="translate(250 350) rotate(0 214 9)"><path d="M0 0 L428 0 L428 18 L0 18" stroke="none" stroke-width="0" fill="#f0fdf4"></path><path d="M0 0 C106.93 0, 213.87 0, 428 0 M0 0 C166.58 0, 333.16 0, 428 0 M428 0 C428 7.07, 428 14.14, 428 18 M428 0 C428 6.78, 428 13.56, 428 18 M428 18 C330.63 18, 233.26 18, 0 18 M428 18 C281.68 18, 135.36 18, 0 18 M0 18 C0 11.3, 0 4.59, 0 0 M0 18 C0 13.7, 0 9.39, 0 0" stroke="#dcfce7" stroke-width="1" fill="none"></path></g><g transform="translate(256 351) rotate(0 200 7)"><text x="0" y="9.97021484375" font-family="Helvetica, Segoe UI Emoji" font-size="11px" fill="#166534" text-anchor="start" style="white-space: pre;" direction="ltr" dominant-baseline="alphabetic">Methods: statistical paragraph added</text></g><g stroke-linecap="round" transform="translate(250 372) rotate(0 214 9)"><path d="M0 0 L428 0 L428 18 L0 18" stroke="none" stroke-width="0" fill="#ffffff"></path><path d="M0 0 C106.94 0, 213.88 0, 428 0 M0 0 C142.61 0, 285.21 0, 428 0 M428 0 C428 4.74, 428 9.47, 428 18 M428 0 C428 5.89, 428 11.78, 428 18 M428 18 C277.97 18, 127.95 18, 0 18 M428 18 C332.26 18, 236.52 18, 0 18 M0 18 C0 13.43, 0 8.86, 0 0 M0 18 C0 11.84, 0 5.68, 0 0" stroke="#e2e8f0" stroke-width="1" fill="none"></path></g><g transform="translate(256 373) rotate(0 200 7)"><text x="0" y="9.97021484375" font-family="Helvetica, Segoe UI Emoji" font-size="11px" fill="#64748b" text-anchor="start" style="white-space: pre;" direction="ltr" dominant-baseline="alphabetic">Results: unchanged (2/3 tables reformatted)</text></g><g stroke-linecap="round" transform="translate(22 488) rotate(0 338 18)"><path d="M0 0 L676 0 L676 36 L0 36" stroke="none" stroke-width="0" fill="#f8fafc"></path><path d="M0 0 C168.91 0, 337.83 0, 676 0 M0 0 C149.51 0, 299.02 0, 676 0 M676 0 C676 7.33, 676 14.67, 676 36 M676 0 C676 8.22, 676 16.45, 676 36 M676 36 C407.91 36, 139.83 36, 0 36 M676 36 C414.17 36, 152.34 36, 0 36 M0 36 C0 28.2, 0 20.4, 0 0 M0 36 C0 23.46, 0 10.93, 0 0" stroke="#e2e8f0" stroke-width="1" fill="none"></path></g><g stroke-linecap="round" transform="translate(32 492) rotate(0 60 14)"><path d="M0 0 L120 0 L120 28 L0 28" stroke="none" stroke-width="0" fill="#dbeafe"></path><path d="M0 0 C29.99 0, 59.97 0, 120 0 M0 0 C35.18 0, 70.36 0, 120 0 M120 0 C120 6.69, 120 13.38, 120 28 M120 0 C120 5.7, 120 11.41, 120 28 M120 28 C77.03 28, 34.06 28, 0 28 M120 28 C92.61 28, 65.22 28, 0 28 M0 28 C0 18, 0 7.99, 0 0 M0 28 C0 19.61, 0 11.21, 0 0" stroke="#1e40af" stroke-width="1" fill="none"></path></g><g transform="translate(38 498) rotate(0 54 8)"><text x="54" y="10.97021484375" font-family="Helvetica, Segoe UI Emoji" font-size="11px" fill="#334155" text-anchor="middle" style="white-space: pre;" direction="ltr" dominant-baseline="alphabetic">Restore selected</text></g><g stroke-linecap="round" transform="translate(160 492) rotate(0 90 14)"><path d="M0 0 L180 0 L180 28 L0 28" stroke="none" stroke-width="0" fill="#f1f5f9"></path><path d="M0 0 C44.98 0, 89.96 0, 180 0 M0 0 C42.69 0, 85.37 0, 180 0 M180 0 C180 8.66, 180 17.31, 180 28 M180 0 C180 9.92, 180 19.84, 180 28 M180 28 C129.4 28, 78.8 28, 0 28 M180 28 C124.19 28, 68.38 28, 0 28 M0 28 C0 21.32, 0 14.63, 0 0 M0 28 C0 22.32, 0 16.64, 0 0" stroke="#475569" stroke-width="1" fill="none"></path></g><g transform="translate(170 498) rotate(0 80 8)"><text x="80" y="10.97021484375" font-family="Helvetica, Segoe UI Emoji" font-size="11px" fill="#334155" text-anchor="middle" style="white-space: pre;" direction="ltr" dominant-baseline="alphabetic">Clear old versions (free 4.4 MB)</text></g></svg>